<svg width="270" height="40" viewBox="0 0 270 40" fill="none" xmlns="http://www.w3.org/2000/svg">
<path d="M0.8 31V29.48C1.25333 29.2133 1.76 28.9867 2.32 28.8C2.88 28.5867 3.46667 28.4267 4.08 28.32V5.68C3.46667 5.54667 2.86667 5.38667 2.28 5.2C1.72 4.98666 1.22667 4.76 0.8 4.52V3H5.44C5.89333 3 6.45333 2.98666 7.12 2.96C7.78667 2.93333 8.48 2.90667 9.2 2.88C9.92 2.82667 10.6133 2.78667 11.28 2.76C11.9733 2.70667 12.56 2.68 13.04 2.68C15.36 2.68 17.4267 2.98667 19.24 3.6C21.08 4.21333 22.6267 5.10666 23.88 6.28C25.16 7.45333 26.1333 8.90667 26.8 10.64C27.4933 12.3733 27.84 14.3733 27.84 16.64C27.84 18.8533 27.52 20.8667 26.88 22.68C26.24 24.4933 25.28 26.04 24 27.32C22.72 28.6 21.0933 29.6 19.12 30.32C17.1733 31.0133 14.88 31.36 12.24 31.36C11.8933 31.36 11.4267 31.3333 10.84 31.28C10.2533 31.2533 9.62667 31.2133 8.96 31.16C8.29333 31.1333 7.62667 31.0933 6.96 31.04C6.29333 31.0133 5.70667 31 5.2 31H0.8ZM12.52 5.28C12.04 5.28 11.56 5.29333 11.08 5.32C10.6 5.34667 10.1867 5.38667 9.84 5.44V28.6C9.94667 28.6267 10.1333 28.6533 10.4 28.68C10.6667 28.68 10.9333 28.6933 11.2 28.72C11.4933 28.72 11.7733 28.7333 12.04 28.76C12.3067 28.76 12.5067 28.76 12.64 28.76C14.1867 28.76 15.4933 28.44 16.56 27.8C17.6533 27.16 18.5467 26.2933 19.24 25.2C19.9333 24.1067 20.44 22.8267 20.76 21.36C21.08 19.8933 21.24 18.3333 21.24 16.68C21.24 15.2133 21.0667 13.8 20.72 12.44C20.4 11.08 19.8933 9.86667 19.2 8.8C18.5067 7.73333 17.6 6.88 16.48 6.24C15.3867 5.6 14.0667 5.28 12.52 5.28ZM47.0531 25.2C47.0531 25.7867 47.0531 26.2933 47.0531 26.72C47.0798 27.1467 47.1198 27.6 47.1731 28.08L49.9331 28.48V29.88C49.6131 30.04 49.1731 30.2 48.6131 30.36C48.0798 30.52 47.5065 30.68 46.8931 30.84C46.3065 30.9733 45.7198 31.08 45.1331 31.16C44.5465 31.2667 44.0265 31.3467 43.5731 31.4H42.2131C41.9465 30.7867 41.7865 30.1733 41.7331 29.56C41.6798 28.9467 41.6398 28.2 41.6131 27.32H41.4131C41.2798 27.8533 41.0531 28.3733 40.7331 28.88C40.4131 29.36 39.9998 29.8 39.4931 30.2C39.0131 30.5733 38.4398 30.88 37.7731 31.12C37.1065 31.36 36.3598 31.48 35.5331 31.48C34.6531 31.48 33.8398 31.3467 33.0931 31.08C32.3465 30.8133 31.6931 30.44 31.1331 29.96C30.5731 29.48 30.1331 28.9067 29.8131 28.24C29.4931 27.5467 29.3331 26.7733 29.3331 25.92C29.3331 24.72 29.5598 23.7333 30.0131 22.96C30.4665 22.1867 31.1731 21.56 32.1331 21.08C33.1198 20.5733 34.3731 20.2 35.8931 19.96C37.4398 19.72 39.3065 19.5467 41.4931 19.44C41.7065 17.1467 41.6131 15.4667 41.2131 14.4C40.8131 13.3333 39.9465 12.8 38.6131 12.8C37.7865 12.8 37.0265 12.9333 36.3331 13.2L34.4531 18H32.6931C32.4798 17.68 32.2665 17.32 32.0531 16.92C31.8665 16.4933 31.6798 16.0533 31.4931 15.6C31.3331 15.12 31.1865 14.64 31.0531 14.16C30.9465 13.68 30.8665 13.2133 30.8131 12.76C31.8265 12.0667 33.1331 11.52 34.7331 11.12C36.3331 10.72 38.0265 10.52 39.8131 10.52C41.3331 10.52 42.5731 10.6933 43.5331 11.04C44.4931 11.36 45.2398 11.8133 45.7731 12.4C46.3331 12.96 46.7198 13.6267 46.9331 14.4C47.1465 15.1733 47.2531 16 47.2531 16.88C47.2531 18.48 47.2131 19.9333 47.1331 21.24C47.0798 22.52 47.0531 23.84 47.0531 25.2ZM38.0531 28.28C38.6131 28.28 39.0931 28.1733 39.4931 27.96C39.8931 27.7467 40.2265 27.4933 40.4931 27.2C40.7865 26.9067 40.9998 26.5867 41.1331 26.24C41.2931 25.8933 41.4131 25.5867 41.4931 25.32V21.32C40.2398 21.3467 39.2131 21.4267 38.4131 21.56C37.6131 21.6933 36.9865 21.92 36.5331 22.24C36.0798 22.5333 35.7598 22.92 35.5731 23.4C35.4131 23.8533 35.3331 24.4133 35.3331 25.08C35.3331 26.0933 35.5731 26.88 36.0531 27.44C36.5331 28 37.1998 28.28 38.0531 28.28ZM74.5987 31H63.9987V29.44C64.3454 29.2533 64.6787 29.0933 64.9987 28.96C65.3454 28.8 65.7454 28.64 66.1987 28.48V19.08C66.1987 17.4 65.9587 16.0933 65.4787 15.16C64.9987 14.2 64.1454 13.72 62.9187 13.72C61.9054 13.72 61.0254 14.0533 60.2787 14.72C59.5587 15.36 59.0121 16.24 58.6387 17.36V28.48C59.0654 28.5867 59.4387 28.72 59.7587 28.88C60.1054 29.0133 60.4654 29.2 60.8387 29.44V31H50.2387V29.44C50.9054 29.0933 51.7854 28.7733 52.8787 28.48V13.84L50.2387 13.52V11.96C50.5854 11.8 51.0387 11.6533 51.5987 11.52C52.1587 11.36 52.7587 11.2133 53.3987 11.08C54.0654 10.9467 54.7321 10.84 55.3987 10.76C56.0921 10.6533 56.7187 10.5733 57.2787 10.52H58.6387V14.64H58.6787C59.2387 13.52 60.0787 12.56 61.1987 11.76C62.3187 10.9333 63.6787 10.52 65.2787 10.52C66.3187 10.52 67.2521 10.6533 68.0787 10.92C68.9054 11.16 69.5987 11.6 70.1587 12.24C70.7454 12.88 71.1854 13.7467 71.4787 14.84C71.7987 15.9067 71.9588 17.2667 71.9588 18.92V28.48C73.0254 28.6667 73.9054 28.9867 74.5987 29.44V31ZM86.1409 31H75.1009V29.44C75.5009 29.2267 75.9143 29.0533 76.3409 28.92C76.7676 28.76 77.2343 28.6133 77.7409 28.48V13.84L75.1009 13.52V11.96C75.5009 11.8 75.9943 11.64 76.5809 11.48C77.1943 11.32 77.8343 11.1867 78.5009 11.08C79.1676 10.9467 79.8209 10.84 80.4609 10.76C81.1009 10.6533 81.6609 10.5733 82.1409 10.52H83.5009V28.48C84.0343 28.6133 84.5143 28.76 84.9409 28.92C85.3676 29.0533 85.7676 29.2267 86.1409 29.44V31ZM77.0609 4.44C77.0609 3.50666 77.3809 2.77333 78.0209 2.24C78.6609 1.70667 79.4876 1.44 80.5009 1.44C81.5143 1.44 82.3409 1.70667 82.9809 2.24C83.6209 2.77333 83.9409 3.50666 83.9409 4.44C83.9409 5.34666 83.6209 6.06667 82.9809 6.6C82.3409 7.13333 81.5143 7.4 80.5009 7.4C79.4876 7.4 78.6609 7.13333 78.0209 6.6C77.3809 6.06667 77.0609 5.34666 77.0609 4.44ZM105.382 27.64C105.169 28.0933 104.822 28.56 104.342 29.04C103.889 29.4933 103.316 29.9067 102.622 30.28C101.956 30.6267 101.169 30.9067 100.262 31.12C99.3822 31.36 98.4222 31.48 97.3822 31.48C95.7289 31.48 94.2622 31.24 92.9822 30.76C91.7022 30.2533 90.6355 29.5467 89.7822 28.64C88.9289 27.7067 88.2755 26.6 87.8222 25.32C87.3955 24.04 87.1822 22.6 87.1822 21C87.1822 17.5867 88.0755 14.9867 89.8622 13.2C91.6489 11.4133 94.1289 10.52 97.3022 10.52C98.6622 10.52 99.9289 10.7067 101.102 11.08C102.302 11.4533 103.289 12.0667 104.062 12.92C104.862 13.7733 105.409 14.8933 105.702 16.28C106.022 17.6667 106.009 19.36 105.662 21.36H93.3822C93.4089 23.4667 93.9422 25.1467 94.9822 26.4C96.0489 27.6533 97.6089 28.28 99.6622 28.28C100.542 28.28 101.449 28.1467 102.382 27.88C103.342 27.6133 104.089 27.2667 104.622 26.84L105.382 27.64ZM97.1422 12.8C96.6089 12.8 96.1289 12.8933 95.7022 13.08C95.3022 13.2667 94.9422 13.6133 94.6222 14.12C94.3289 14.6 94.0889 15.2667 93.9022 16.12C93.7155 16.9467 93.5822 18 93.5022 19.28H99.9422C100.129 17.2 100.009 15.6 99.5822 14.48C99.1555 13.36 98.3422 12.8 97.1422 12.8ZM118.507 31H107.467V29.44C108.347 29.0133 109.227 28.6933 110.107 28.48V4.24L107.067 3.92V2.36C107.413 2.2 107.893 2.04 108.507 1.88C109.12 1.72 109.773 1.58667 110.467 1.48C111.187 1.34667 111.893 1.24 112.587 1.16C113.307 1.05333 113.947 0.973331 114.507 0.919999H115.867V28.48C116.747 28.6933 117.627 29.0133 118.507 29.44V31ZM137.108 25.2C137.108 25.7867 137.108 26.2933 137.108 26.72C137.134 27.1467 137.174 27.6 137.228 28.08L139.988 28.48V29.88C139.668 30.04 139.228 30.2 138.668 30.36C138.134 30.52 137.561 30.68 136.948 30.84C136.361 30.9733 135.774 31.08 135.188 31.16C134.601 31.2667 134.081 31.3467 133.628 31.4H132.268C132.001 30.7867 131.841 30.1733 131.788 29.56C131.734 28.9467 131.694 28.2 131.668 27.32H131.468C131.334 27.8533 131.108 28.3733 130.788 28.88C130.468 29.36 130.054 29.8 129.548 30.2C129.068 30.5733 128.494 30.88 127.828 31.12C127.161 31.36 126.414 31.48 125.588 31.48C124.708 31.48 123.894 31.3467 123.148 31.08C122.401 30.8133 121.748 30.44 121.188 29.96C120.628 29.48 120.188 28.9067 119.868 28.24C119.548 27.5467 119.388 26.7733 119.388 25.92C119.388 24.72 119.614 23.7333 120.068 22.96C120.521 22.1867 121.228 21.56 122.188 21.08C123.174 20.5733 124.428 20.2 125.948 19.96C127.494 19.72 129.361 19.5467 131.548 19.44C131.761 17.1467 131.668 15.4667 131.268 14.4C130.868 13.3333 130.001 12.8 128.668 12.8C127.841 12.8 127.081 12.9333 126.388 13.2L124.508 18H122.748C122.534 17.68 122.321 17.32 122.108 16.92C121.921 16.4933 121.734 16.0533 121.548 15.6C121.388 15.12 121.241 14.64 121.108 14.16C121.001 13.68 120.921 13.2133 120.868 12.76C121.881 12.0667 123.188 11.52 124.788 11.12C126.388 10.72 128.081 10.52 129.868 10.52C131.388 10.52 132.628 10.6933 133.588 11.04C134.548 11.36 135.294 11.8133 135.828 12.4C136.388 12.96 136.774 13.6267 136.988 14.4C137.201 15.1733 137.308 16 137.308 16.88C137.308 18.48 137.268 19.9333 137.188 21.24C137.134 22.52 137.108 23.84 137.108 25.2ZM128.108 28.28C128.668 28.28 129.148 28.1733 129.548 27.96C129.948 27.7467 130.281 27.4933 130.548 27.2C130.841 26.9067 131.054 26.5867 131.188 26.24C131.348 25.8933 131.468 25.5867 131.548 25.32V21.32C130.294 21.3467 129.268 21.4267 128.468 21.56C127.668 21.6933 127.041 21.92 126.588 22.24C126.134 22.5333 125.814 22.92 125.628 23.4C125.468 23.8533 125.388 24.4133 125.388 25.08C125.388 26.0933 125.628 26.88 126.108 27.44C126.588 28 127.254 28.28 128.108 28.28ZM152.74 28.24C153.033 28.48 153.527 28.7467 154.22 29.04C154.913 29.3067 155.647 29.4267 156.42 29.4C157.3 29.4267 158.153 29.36 158.98 29.2C159.807 29.04 160.553 28.76 161.22 28.36C161.887 27.96 162.42 27.44 162.82 26.8C163.22 26.1333 163.42 25.3067 163.42 24.32C163.42 23.2267 163.153 22.3067 162.62 21.56C162.113 20.8133 161.473 20.16 160.7 19.6C159.927 19.0133 159.087 18.4667 158.18 17.96C157.3 17.4267 156.473 16.84 155.7 16.2C154.927 15.56 154.273 14.8133 153.74 13.96C153.233 13.08 152.98 12 152.98 10.72C152.98 9.49333 153.193 8.38667 153.62 7.4C154.073 6.38667 154.727 5.52 155.58 4.8C156.46 4.08 157.527 3.52 158.78 3.12C160.033 2.72 161.46 2.52 163.06 2.52C164.687 2.52 166.14 2.65333 167.42 2.92C168.7 3.16 169.7 3.46667 170.42 3.84C170.313 4.29333 170.153 4.82666 169.94 5.44C169.753 6.02666 169.553 6.64 169.34 7.28C169.127 7.92 168.9 8.54667 168.66 9.16C168.42 9.74667 168.207 10.2667 168.02 10.72H166.98L166.5 5.24C166.047 5.02667 165.46 4.86667 164.74 4.76C164.047 4.65333 163.287 4.6 162.46 4.6C161.66 4.6 160.9 4.69333 160.18 4.88C159.487 5.06667 158.873 5.36 158.34 5.76C157.833 6.13333 157.433 6.61333 157.14 7.2C156.847 7.78667 156.7 8.48 156.7 9.28C156.7 10.3467 156.953 11.24 157.46 11.96C157.993 12.6533 158.647 13.28 159.42 13.84C160.193 14.4 161.02 14.9467 161.9 15.48C162.807 15.9867 163.647 16.5733 164.42 17.24C165.193 17.9067 165.833 18.72 166.34 19.68C166.873 20.6133 167.14 21.7733 167.14 23.16C167.14 24.4133 166.887 25.5467 166.38 26.56C165.9 27.5733 165.193 28.4533 164.26 29.2C163.353 29.92 162.22 30.48 160.86 30.88C159.527 31.28 158.007 31.48 156.3 31.48C155.447 31.48 154.62 31.4267 153.82 31.32C153.047 31.2133 152.327 31.0667 151.66 30.88C151.02 30.6933 150.447 30.4933 149.94 30.28C149.433 30.04 149.047 29.8133 148.78 29.6C148.887 29.12 149.033 28.56 149.22 27.92C149.433 27.2533 149.66 26.5867 149.9 25.92C150.14 25.2533 150.38 24.6133 150.62 24C150.86 23.36 151.087 22.8133 151.3 22.36H152.34L152.74 28.24ZM169.434 23.56C169.434 22.1467 169.647 20.68 170.074 19.16C170.527 17.6133 171.207 16.2 172.114 14.92C173.02 13.64 174.154 12.5867 175.514 11.76C176.874 10.9333 178.46 10.52 180.274 10.52C182.354 10.52 183.914 11.16 184.954 12.44C186.02 13.72 186.554 15.6133 186.554 18.12C186.554 19.88 186.3 21.5733 185.794 23.2C185.287 24.8 184.58 26.2133 183.674 27.44C182.767 28.6667 181.674 29.6533 180.394 30.4C179.114 31.12 177.7 31.48 176.154 31.48C174.1 31.48 172.46 30.8267 171.234 29.52C170.034 28.1867 169.434 26.2 169.434 23.56ZM179.474 12.24C178.167 12.2667 177.1 12.6933 176.274 13.52C175.447 14.3467 174.794 15.3733 174.314 16.6C173.834 17.8267 173.5 19.1467 173.314 20.56C173.127 21.9733 173.034 23.2667 173.034 24.44C173.034 26.0133 173.38 27.2933 174.074 28.28C174.767 29.2667 175.7 29.76 176.874 29.76C177.807 29.76 178.634 29.4133 179.354 28.72C180.1 28 180.727 27.0667 181.234 25.92C181.767 24.7467 182.167 23.4267 182.434 21.96C182.727 20.4933 182.874 19.0133 182.874 17.52C182.874 15.9467 182.594 14.68 182.034 13.72C181.5 12.76 180.647 12.2667 179.474 12.24ZM192.105 13H189.185V11.96C189.719 11.6667 190.279 11.4133 190.865 11.2C191.479 10.96 192.052 10.7733 192.585 10.64L192.865 9.24C193.212 7.58667 193.679 6.22667 194.265 5.16C194.879 4.06667 195.585 3.21333 196.385 2.6C197.185 1.96 198.065 1.52 199.025 1.28C199.985 1.04 201.012 0.919999 202.105 0.919999C202.559 0.919999 203.092 0.973332 203.705 1.08C204.345 1.18667 204.879 1.34667 205.305 1.56C205.252 2.14666 205.105 2.76 204.865 3.4C204.652 4.01333 204.279 4.54666 203.745 5L200.705 2.52C200.225 2.65333 199.785 2.8 199.385 2.96C198.985 3.12 198.599 3.42666 198.225 3.88C197.879 4.30666 197.545 4.92 197.225 5.72C196.905 6.52 196.599 7.61333 196.305 9L195.905 11H200.345C200.479 11.6667 200.345 12.3333 199.945 13H195.505L192.945 29.28C192.652 31.1733 192.159 32.7467 191.465 34C190.772 35.2533 190.025 36.2667 189.225 37.04C188.452 37.8133 187.692 38.3867 186.945 38.76C186.199 39.1333 185.625 39.3733 185.225 39.48L184.865 38.6C185.185 38.44 185.572 38.1467 186.025 37.72C186.479 37.32 186.919 36.7733 187.345 36.08C187.799 35.3867 188.212 34.5333 188.585 33.52C188.985 32.5333 189.292 31.3733 189.505 30.04L192.105 13ZM209.82 13.44C209.127 13.7067 208.34 14.3867 207.46 15.48C206.607 16.5467 205.847 18 205.18 19.84L202.78 31H199.34L203.06 13.32L200.62 12.96V11.96C201.527 11.5333 202.474 11.2133 203.46 11C204.447 10.76 205.34 10.6 206.14 10.52L206.94 11L205.82 16.32H205.98C206.754 14.56 207.7 13.16 208.82 12.12C209.94 11.0533 211.14 10.52 212.42 10.52C212.767 10.52 213.114 10.56 213.46 10.64C213.807 10.6933 214.14 10.8133 214.46 11C214.46 11.24 214.42 11.56 214.34 11.96C214.26 12.3333 214.14 12.72 213.98 13.12C213.847 13.52 213.687 13.9067 213.5 14.28C213.34 14.6267 213.167 14.8933 212.98 15.08L209.82 13.44ZM213.451 23.56C213.451 22.1467 213.664 20.68 214.091 19.16C214.544 17.6133 215.224 16.2 216.131 14.92C217.038 13.64 218.171 12.5867 219.531 11.76C220.891 10.9333 222.478 10.52 224.291 10.52C226.371 10.52 227.931 11.16 228.971 12.44C230.038 13.72 230.571 15.6133 230.571 18.12C230.571 19.88 230.318 21.5733 229.811 23.2C229.304 24.8 228.598 26.2133 227.691 27.44C226.784 28.6667 225.691 29.6533 224.411 30.4C223.131 31.12 221.718 31.48 220.171 31.48C218.118 31.48 216.478 30.8267 215.251 29.52C214.051 28.1867 213.451 26.2 213.451 23.56ZM223.491 12.24C222.184 12.2667 221.118 12.6933 220.291 13.52C219.464 14.3467 218.811 15.3733 218.331 16.6C217.851 17.8267 217.518 19.1467 217.331 20.56C217.144 21.9733 217.051 23.2667 217.051 24.44C217.051 26.0133 217.398 27.2933 218.091 28.28C218.784 29.2667 219.718 29.76 220.891 29.76C221.824 29.76 222.651 29.4133 223.371 28.72C224.118 28 224.744 27.0667 225.251 25.92C225.784 24.7467 226.184 23.4267 226.451 21.96C226.744 20.4933 226.891 19.0133 226.891 17.52C226.891 15.9467 226.611 14.68 226.051 13.72C225.518 12.76 224.664 12.2667 223.491 12.24ZM246.402 19.6C246.589 18.7733 246.749 18.0133 246.882 17.32C247.042 16.6 247.122 15.8933 247.122 15.2C247.122 14.5867 246.976 14.0667 246.682 13.64C246.416 13.2133 245.976 13 245.362 13C244.642 13 243.909 13.2933 243.162 13.88C242.416 14.4667 241.722 15.1733 241.082 16C240.442 16.8267 239.856 17.6933 239.322 18.6C238.816 19.48 238.429 20.2133 238.162 20.8L236.042 31H232.682L236.202 13.32L233.762 12.96L233.842 11.96C234.216 11.7733 234.629 11.6 235.082 11.44C235.562 11.2533 236.042 11.0933 236.522 10.96C237.029 10.8267 237.509 10.72 237.962 10.64C238.442 10.56 238.882 10.52 239.282 10.52L240.082 11L238.562 18.08H238.762C239.269 17.0133 239.842 16.0267 240.482 15.12C241.149 14.1867 241.842 13.3867 242.562 12.72C243.309 12.0267 244.082 11.4933 244.882 11.12C245.682 10.72 246.496 10.52 247.322 10.52C248.442 10.52 249.256 10.88 249.762 11.6C250.296 12.2933 250.562 13.1733 250.562 14.24C250.562 14.8267 250.496 15.56 250.362 16.44C250.229 17.32 250.069 18.1467 249.882 18.92L247.602 28.76H250.562V29.8C250.029 30.2267 249.376 30.5733 248.602 30.84C247.856 31.1067 247.122 31.24 246.402 31.24C245.629 31.24 245.096 31.08 244.802 30.76C244.509 30.44 244.362 30.0933 244.362 29.72C244.362 29.2133 244.429 28.6667 244.562 28.08C244.696 27.4667 244.829 26.8533 244.962 26.24L246.402 19.6ZM267.513 27.44C267.273 27.9467 266.926 28.44 266.473 28.92C266.019 29.4 265.486 29.84 264.873 30.24C264.259 30.6133 263.566 30.9067 262.793 31.12C262.019 31.36 261.193 31.48 260.313 31.48C258.099 31.48 256.393 30.8533 255.193 29.6C254.019 28.32 253.433 26.56 253.433 24.32C253.433 22.4267 253.699 20.64 254.233 18.96C254.766 17.28 255.513 15.8133 256.473 14.56C257.433 13.3067 258.593 12.32 259.953 11.6C261.339 10.88 262.873 10.52 264.553 10.52C265.833 10.52 266.926 10.8533 267.833 11.52C268.766 12.16 269.233 13.12 269.233 14.4C269.233 16.2933 268.286 17.7867 266.393 18.88C264.526 19.9733 261.499 20.68 257.313 21C257.206 21.4533 257.126 21.8933 257.073 22.32C257.046 22.7467 257.033 23.16 257.033 23.56C257.033 25.16 257.433 26.4667 258.233 27.48C259.059 28.4933 260.259 29 261.833 29C262.339 29 262.833 28.92 263.313 28.76C263.819 28.6 264.286 28.4 264.713 28.16C265.166 27.92 265.566 27.6667 265.913 27.4C266.286 27.1333 266.606 26.8933 266.873 26.68L267.513 27.44ZM263.313 12.24C262.166 12.2667 261.099 12.8133 260.113 13.88C259.126 14.92 258.286 16.72 257.593 19.28C260.179 19.2 262.193 18.76 263.633 17.96C265.073 17.1333 265.793 16 265.793 14.56C265.793 14 265.619 13.48 265.273 13C264.953 12.52 264.299 12.2667 263.313 12.24Z" fill="#4B6D6D"/>
</svg>
