<svg width="38" height="38" viewBox="0 0 38 38" fill="none" xmlns="http://www.w3.org/2000/svg">
<path d="M14.735 10.625C14.735 11.6607 13.9025 12.5 12.875 12.5C11.8475 12.5 11.015 11.6607 11.015 10.625C11.015 9.59 11.8475 8.75 12.875 8.75C13.9025 8.75 14.735 9.59 14.735 10.625ZM14.75 14H11V26H14.75V14ZM20.7365 14H17.0105V26H20.7372V19.7008C20.7372 16.1982 25.259 15.9117 25.259 19.7008V26H29V18.4018C29 12.4918 22.3085 12.707 20.7365 15.6163V14Z" fill="black"/>
<rect x="0.5" y="0.5" width="37" height="37" rx="18.5" stroke="#CACACA"/>
</svg>
