<?xml version="1.0" encoding="iso-8859-1"?>
<!-- Generator: Adobe Illustrator 19.0.0, SVG Export Plug-In . SVG Version: 6.00 Build 0)  -->
<svg version="1.1" id="Layer_1" xmlns="http://www.w3.org/2000/svg" xmlns:xlink="http://www.w3.org/1999/xlink" x="0px" y="0px"
	 viewBox="0 0 490 490" style="enable-background:new 0 0 490 490;" xml:space="preserve">
<g>
	<g>
		<g>
			<path d="M460,0H30C13.458,0,0,13.458,0,30v430c0,16.542,13.458,30,30,30h430c16.542,0,30-13.458,30-30V30
				C490,13.458,476.542,0,460,0z M470,460c0,5.514-4.486,10-10,10H30c-5.514,0-10-4.486-10-10V30c0-5.514,4.486-10,10-10h430
				c5.514,0,10,4.486,10,10V460z"/>
			<path d="M345,160c-46.869,0-85,38.131-85,85c0,46.869,38.131,85,85,85c46.869,0,85-38.131,85-85S391.869,160,345,160z M345,310
				c-35.841,0-65-29.159-65-65s29.159-65,65-65s65,29.159,65,65S380.841,310,345,310z"/>
			<path d="M145,160c-46.869,0-85,38.131-85,85c0,46.869,38.131,85,85,85s85-38.131,85-85S191.869,160,145,160z M145,310
				c-35.841,0-65-29.159-65-65s29.159-65,65-65s65,29.159,65,65S180.841,310,145,310z"/>
		</g>
	</g>
</g>
<g>
</g>
<g>
</g>
<g>
</g>
<g>
</g>
<g>
</g>
<g>
</g>
<g>
</g>
<g>
</g>
<g>
</g>
<g>
</g>
<g>
</g>
<g>
</g>
<g>
</g>
<g>
</g>
<g>
</g>
</svg>
