<svg width="38" height="38" viewBox="0 0 38 38" fill="none" xmlns="http://www.w3.org/2000/svg">
<path fill-rule="evenodd" clip-rule="evenodd" d="M19 7C12.37 7 7 12.37 7 19C7 24.31 10.435 28.795 15.205 30.385C15.805 30.49 16.03 30.13 16.03 29.815C16.03 29.53 16.015 28.585 16.015 27.58C13 28.135 12.22 26.845 11.98 26.17C11.845 25.825 11.26 24.76 10.75 24.475C10.33 24.25 9.73 23.695 10.735 23.68C11.68 23.665 12.355 24.55 12.58 24.91C13.66 26.725 15.385 26.215 16.075 25.9C16.18 25.12 16.495 24.595 16.84 24.295C14.17 23.995 11.38 22.96 11.38 18.37C11.38 17.065 11.845 15.985 12.61 15.145C12.49 14.845 12.07 13.615 12.73 11.965C12.73 11.965 13.735 11.65 16.03 13.195C16.99 12.925 18.01 12.79 19.03 12.79C20.05 12.79 21.07 12.925 22.03 13.195C24.325 11.635 25.33 11.965 25.33 11.965C25.99 13.615 25.57 14.845 25.45 15.145C26.215 15.985 26.68 17.05 26.68 18.37C26.68 22.975 23.875 23.995 21.205 24.295C21.64 24.67 22.015 25.39 22.015 26.515C22.015 28.12 22 29.41 22 29.815C22 30.13 22.225 30.505 22.825 30.385C27.565 28.795 31 24.295 31 19C31 12.37 25.63 7 19 7Z" fill="black"/>
<rect x="0.5" y="0.5" width="37" height="37" rx="18.5" stroke="#CACACA"/>
</svg>
